<svg width="246" height="80" viewBox="0 0 246 80" fill="none" xmlns="http://www.w3.org/2000/svg"><path d="M26.5 78.555h8.064v-7.227h-7.54c-6.285 0-8.485-3.456-8.485-9.322V31.108h16.759V24.09H18.539V8.275h-7.75v13.092c0 1.78-1.153 2.723-2.62 2.723H0v7.018h10.265v31.003c0 10.998 6.18 16.444 16.234 16.444zm46.479 1.362c12.778 0 22.31-7.227 25.347-17.387h-8.589c-2.513 6.39-9.426 9.846-16.653 9.846-11.208 0-18.225-7.227-18.644-18.12h44.41V50.59c0-15.711-9.846-27.861-26.395-27.861-14.873 0-26.709 11.207-26.709 28.594 0 16.34 10.58 28.594 27.233 28.594zm-18.33-32.993c.838-10.055 8.694-16.654 17.806-16.654 9.217 0 16.863 5.76 17.597 16.654H54.649zm66.526 31.631h3.98v-7.331h-2.514c-2.618 0-3.98-1.572-3.98-4.295V0h-8.274v66.93c0 7.436 3.98 11.625 10.788 11.625zm102.967 1.362c12.673 0 21.157-6.913 21.157-17.177 0-22.52-32.679-10.998-32.679-24.824 0-4.713 4.399-8.065 11.207-8.065 7.227 0 11.103 3.456 11.836 8.589h7.96c-.838-9.846-9.217-15.711-19.272-15.711-11.417 0-19.691 5.97-19.691 15.187 0 21.577 32.574 9.95 32.574 25.243 0 5.55-4.504 9.531-12.674 9.531-7.96 0-12.568-3.456-13.511-9.95h-8.065c.943 10.16 8.274 17.177 21.158 17.177z" fill="#fff"/><g filter="url(#filter0_i)"><circle cx="163.381" cy="51.109" r="28.891" fill="url(#paint0_linear)"/></g><circle cx="163.381" cy="51.109" r="28.298" stroke="url(#paint1_linear)" stroke-opacity=".12" stroke-width="1.188"/><defs><linearGradient id="paint0_linear" x1="134.489" y1="51.109" x2="192.272" y2="51.109" gradientUnits="userSpaceOnUse"><stop stop-color="#AE73FA"/><stop offset="1" stop-color="#AE73FA" stop-opacity="0"/></linearGradient><linearGradient id="paint1_linear" x1="192.272" y1="51.109" x2="134.489" y2="51.109" gradientUnits="userSpaceOnUse"><stop stop-color="#AE73FA"/><stop offset="1" stop-color="#AE73FA" stop-opacity="0"/></linearGradient><filter id="filter0_i" x="124.989" y="22.217" width="67.283" height="57.783" filterUnits="userSpaceOnUse" color-interpolation-filters="sRGB"><feFlood flood-opacity="0" result="BackgroundImageFix"/><feBlend in="SourceGraphic" in2="BackgroundImageFix" result="shape"/><feColorMatrix in="SourceAlpha" values="0 0 0 0 0 0 0 0 0 0 0 0 0 0 0 0 0 0 127 0" result="hardAlpha"/><feOffset dx="-14.25"/><feGaussianBlur stdDeviation="4.75"/><feComposite in2="hardAlpha" operator="arithmetic" k2="-1" k3="1"/><feColorMatrix values="0 0 0 0 0.682353 0 0 0 0 0.45098 0 0 0 0 0.980392 0 0 0 0.56 0"/><feBlend in2="shape" result="effect1_innerShadow"/></filter></defs></svg>