<svg xmlns="http://www.w3.org/2000/svg" width="400" height="400" viewBox="0 0 400 400"><g fill-rule="evenodd"><path d="M174.4.4c0 .247-2.058.4-5.373.4-5.022 0-5.39.052-5.627.8-.23.726-.605.8-4.027.8-3.506 0-3.773.057-3.773.8 0 .73-.267.8-3.037.8-2.701 0-3.061.089-3.247.8-.185.709-.546.8-3.163.8-2.686 0-2.953.072-2.953.8 0 .711-.267.8-2.4.8-1.77 0-2.4.144-2.4.55 0 .571-1.663 1.05-3.65 1.05-.708 0-1.15.211-1.15.549 0 .369-.675.614-2.054.747-1.329.127-2.184.428-2.42.85-.224.401-.881.654-1.699.654-.997 0-1.386.202-1.543.8-.175.67-.546.8-2.284.8-1.738 0-2.109.13-2.284.8-.164.627-.546.8-1.763.8-1.286 0-1.553.137-1.553.8 0 .667-.267.8-1.6.8-1.333 0-1.6.133-1.6.8s-.267.8-1.6.8c-1.333 0-1.6.133-1.6.8 0 .648-.267.8-1.4.8s-1.4.152-1.4.8c0 .667-.267.8-1.6.8-1.333 0-1.6.133-1.6.8s-.267.8-1.6.8c-1.333 0-1.6.133-1.6.8s-.267.8-1.6.8c-1.133 0-1.6.17-1.6.582 0 .349-.563.687-1.406.845-.773.145-1.538.482-1.7.749-.162.266-.609.6-.994.742-.385.141-.7.533-.7.869 0 .532-1.239.859-2.5.66-.165-.026-.3.313-.3.753 0 .533-.267.8-.8.8s-.8.267-.8.8c0 .667-.267.8-1.6.8-1.333 0-1.6.133-1.6.8 0 .533-.267.8-.8.8s-.8.267-.8.8c0 .667-.267.8-1.6.8-.88 0-1.579.135-1.553.3.14.884-.131 1.3-.847 1.3-.533 0-.8.267-.8.8 0 .642-.267.8-1.353.8-1.017 0-1.406.199-1.563.8-.115.44-.496.8-.847.8-.37 0-.637.335-.637.8 0 .533-.267.8-.8.8-.444 0-.8.267-.8.6 0 .333-.356.6-.8.6-.515 0-.8.267-.8.749 0 .564-.394.812-1.6 1.005-.965.154-1.6.473-1.6.804 0 .302-.36.643-.8.758-.44.115-.8.496-.8.847 0 .37-.335.637-.8.637-.533 0-.8.267-.8.8s-.267.8-.8.8-.8.267-.8.8-.267.8-.8.8-.8.267-.8.8-.267.8-.8.8-.8.267-.8.8-.267.8-.8.8-.8.267-.8.8c0 .444-.267.8-.6.8-.333 0-.6.356-.6.8 0 .533-.267.8-.8.8s-.8.267-.8.8-.267.8-.8.8c-.444 0-.8.267-.8.6 0 .333-.356.6-.8.6-.533 0-.8.267-.8.8s-.267.8-.8.8-.8.267-.8.8-.267.8-.8.8-.8.267-.8.8-.267.8-.8.8c-.524 0-.8.267-.8.773 0 .425-.36.887-.8 1.027-.44.14-.8.491-.8.78 0 .29-.36.621-.8.736-.44.115-.8.496-.8.847 0 .35-.268.637-.595.637-.385 0-.686.565-.851 1.6-.193 1.206-.441 1.6-1.005 1.6-.482 0-.749.285-.749.8 0 .444-.267.8-.6.8-.333 0-.6.356-.6.8 0 .533-.267.8-.8.8-.465 0-.8.267-.8.637 0 .351-.36.732-.8.847-.601.157-.8.546-.8 1.563 0 1.086-.158 1.353-.8 1.353-.533 0-.8.267-.8.8 0 .716-.416.987-1.3.847-.165-.026-.3.673-.3 1.553 0 1.333-.133 1.6-.8 1.6-.533 0-.8.267-.8.8s-.267.8-.8.8c-.667 0-.8.267-.8 1.6 0 1.333-.133 1.6-.8 1.6-.517 0-.8.267-.8.753 0 .421-.359.847-.811.966-.447.117-.785.363-.753.547.201 1.141-.113 2.134-.673 2.134-.351 0-.732.36-.847.8-.115.44-.458.8-.763.8-.478 0-.795 1.363-.589 2.534.032.184-.306.43-.753.547-.639.167-.811.541-.811 1.766 0 1.286-.137 1.553-.8 1.553-.667 0-.8.267-.8 1.6 0 1.333-.133 1.6-.8 1.6s-.8.267-.8 1.6c0 1.333-.133 1.6-.8 1.6-.648 0-.8.267-.8 1.4s-.152 1.4-.8 1.4c-.667 0-.8.267-.8 1.6 0 1.333-.133 1.6-.8 1.6s-.8.267-.8 1.6c0 1.333-.133 1.6-.8 1.6-.663 0-.8.267-.8 1.553 0 1.217-.173 1.599-.8 1.763-.67.175-.8.546-.8 2.284 0 1.738-.13 2.109-.8 2.284-.625.164-.8.546-.8 1.75 0 1.205-.131 1.491-.6 1.311-.392-.151-.621.027-.66.512a67.136 67.136 0 01-.15 1.543c-.049.44-.112 1.205-.139 1.7-.029.511-.31.9-.651.9-.426 0-.602.436-.605 1.5-.008 2.089-.39 3.3-1.042 3.3-.409 0-.553.623-.553 2.4 0 2.133-.089 2.4-.8 2.4-.729 0-.8.267-.8 3 0 2.713-.075 3-.784 3-.706 0-.795.329-.9 3.3-.102 2.897-.202 3.285-.822 3.181-.389-.065-.682.025-.653.2.456 2.709-.129 8.919-.841 8.919-.756 0-.8.267-.8 4.8 0 2.933-.156 4.8-.4 4.8-.262 0-.4 8.8-.4 25.6s.138 25.6.4 25.6c.247 0 .4 2.058.4 5.373 0 5.022.052 5.39.8 5.627.726.23.8.605.8 4.027 0 2.075.135 3.752.3 3.726 1.155-.183 1.3.162 1.3 3.084 0 2.701.089 3.061.8 3.247.709.185.8.546.8 3.163 0 2.686.072 2.953.8 2.953.711 0 .8.267.8 2.4 0 1.77.144 2.4.55 2.4.571 0 1.05 1.663 1.05 3.65 0 .756.206 1.15.6 1.15.38 0 .611.402.631 1.1.049 1.765.267 2.524.939 3.267.346.383.63 1.284.63 2.002 0 .969.206 1.36.8 1.515.665.174.8.546.8 2.2 0 1.654.135 2.026.8 2.2.627.164.8.546.8 1.763 0 1.286.137 1.553.8 1.553.667 0 .8.267.8 1.6 0 1.333.133 1.6.8 1.6s.8.267.8 1.6c0 1.333.133 1.6.8 1.6.652 0 .8.267.8 1.437 0 1.101.187 1.487.8 1.647.601.157.8.546.8 1.563 0 1.086.158 1.353.8 1.353.667 0 .8.267.8 1.6 0 1.333.133 1.6.8 1.6s.8.267.8 1.6c0 1.257.15 1.6.7 1.601.504 0 .726.364.792 1.299.05.714.365 1.499.7 1.743.334.245.608.638.608.874s.36.543.8.683c.702.223 1.059 1.36.847 2.7-.026.165.313.3.753.3.533 0 .8.267.8.8s.267.8.8.8c.667 0 .8.267.8 1.6 0 1.333.133 1.6.8 1.6.533 0 .8.267.8.8s.267.8.8.8c.667 0 .8.267.8 1.6 0 1.333.133 1.6.8 1.6.533 0 .8.267.8.8s.267.8.8.8c.642 0 .8.267.8 1.353 0 1.017.199 1.406.8 1.563.44.115.8.484.8.82 0 .335.36.724.8.864.44.14.8.512.8.827 0 .315.27.573.6.573.333 0 .6.356.6.8 0 .515.267.8.749.8.564 0 .812.394 1.005 1.6.165 1.035.466 1.6.851 1.6.327 0 .595.287.595.637 0 .351.36.732.8.847.443.116.8.546.8.963 0 .486.283.753.8.753.533 0 .8.267.8.8s.267.8.8.8.8.267.8.8.267.8.8.8.8.267.8.8.267.8.8.8.8.267.8.8.267.8.8.8.8.267.8.8.267.8.8.8c.444 0 .8.267.8.6 0 .333.356.6.8.6.533 0 .8.267.8.8 0 .444.267.8.6.8.333 0 .6.356.6.8 0 .533.267.8.8.8s.8.267.8.8.267.8.8.8.8.267.8.8.267.8.8.8.8.267.8.8.267.8.8.8c.465 0 .8.267.8.637 0 .351.36.732.8.847.44.115.8.475.8.8 0 .325.36.685.8.8.44.115.8.456.8.758 0 .331.635.65 1.6.804 1.206.193 1.6.441 1.6 1.005 0 .482.285.749.8.749.444 0 .8.267.8.6 0 .333.356.6.8.6.517 0 .8.267.8.753 0 .417.357.847.8.963.44.115.8.496.8.847 0 .461.386.637 1.4.637 1.133 0 1.4.152 1.4.8 0 .533.267.8.8.8.716 0 .987.416.847 1.3-.026.165.673.3 1.553.3 1.333 0 1.6.133 1.6.8 0 .533.267.8.8.8s.8.267.8.8c0 .667.267.8 1.6.8 1.333 0 1.6.133 1.6.8 0 .517.267.8.753.8.417 0 .847.357.963.8.152.583.546.8 1.447.8.865 0 1.237.192 1.237.637 0 .351.36.732.8.847.44.115.8.439.8.72 0 .602.883.996 2.233.996.593 0 .967.232.967.6 0 .433.444.6 1.6.6 1.333 0 1.6.133 1.6.8s.267.8 1.6.8c1.333 0 1.6.133 1.6.8s.267.8 1.6.8c1.333 0 1.6.133 1.6.8 0 .648.267.8 1.4.8s1.4.152 1.4.8c0 .667.267.8 1.6.8 1.333 0 1.6.133 1.6.8s.267.8 1.6.8c1.333 0 1.6.133 1.6.8 0 .663.267.8 1.553.8 1.217 0 1.599.173 1.763.8.175.67.546.8 2.284.8 1.738 0 2.109.13 2.284.8.157.601.546.8 1.563.8.89 0 1.353.191 1.353.557 0 .739.886 1.043 3.033 1.043 1.244 0 1.767.165 1.767.557 0 .739.886 1.043 3.033 1.043 1.304 0 1.767.157 1.767.6 0 .467.533.6 2.4.6 2.133 0 2.4.089 2.4.8 0 .729.267.8 3 .8s3 .071 3 .8c0 .733.267.8 3.2.8 2.933 0 3.2.067 3.2.8 0 .754.267.8 4.6.8 4.333 0 4.6.046 4.6.8 0 .756.267.8 4.8.8 2.933 0 4.8.156 4.8.4 0 .263 8.8.4 25.6.4s25.6-.137 25.6-.4c0-.247 2.058-.4 5.373-.4 5.022 0 5.39-.052 5.627-.8.23-.726.605-.8 4.027-.8 3.506 0 3.773-.057 3.773-.8 0-.73.267-.8 3.037-.8 2.701 0 3.061-.089 3.247-.8.185-.707.546-.8 3.116-.8 2.57 0 2.931-.093 3.116-.8.178-.68.546-.8 2.447-.8 1.722 0 2.237-.138 2.237-.6 0-.394.394-.6 1.15-.6 1.926 0 3.65-.472 3.65-.999 0-.309.785-.575 2.054-.697 1.329-.127 2.184-.428 2.42-.85.231-.413.888-.654 1.783-.654 1.081 0 1.468-.19 1.627-.8.174-.665.546-.8 2.2-.8 1.654 0 2.026-.135 2.2-.8.164-.627.546-.8 1.763-.8 1.286 0 1.553-.137 1.553-.8 0-.667.267-.8 1.6-.8 1.333 0 1.6-.133 1.6-.8s.267-.8 1.6-.8c1.333 0 1.6-.133 1.6-.8s.267-.8 1.6-.8c1.333 0 1.6-.133 1.6-.8 0-.648.267-.8 1.4-.8s1.4-.152 1.4-.8c0-.667.267-.8 1.6-.8 1.333 0 1.6-.133 1.6-.8s.267-.8 1.6-.8c1.099 0 1.6-.174 1.6-.555 0-.32.603-.669 1.421-.823.782-.146 1.514-.508 1.628-.805.113-.296.554-.629.979-.74.424-.111.772-.489.772-.84 0-.461.386-.637 1.4-.637 1.133 0 1.4-.152 1.4-.8 0-.533.267-.8.8-.8s.8-.267.8-.8c0-.667.267-.8 1.6-.8 1.333 0 1.6-.133 1.6-.8 0-.533.267-.8.8-.8s.8-.267.8-.8c0-.667.267-.8 1.6-.8 1.333 0 1.6-.133 1.6-.8 0-.533.267-.8.8-.8s.8-.267.8-.8c0-.648.267-.8 1.4-.8.988 0 1.4-.18 1.4-.61 0-.335.45-.781 1-.99.55-.209 1-.655 1-.99 0-.336.27-.61.6-.61.33 0 .6-.27.6-.6 0-.333.356-.6.8-.6.515 0 .8-.267.8-.749 0-.564.394-.812 1.6-1.005.965-.154 1.6-.473 1.6-.804 0-.302.36-.643.8-.758.44-.115.8-.496.8-.847 0-.37.335-.637.8-.637.533 0 .8-.267.8-.8s.267-.8.8-.8.8-.267.8-.8.267-.8.8-.8.8-.267.8-.8.267-.8.8-.8.8-.267.8-.8.267-.8.8-.8.8-.267.8-.8.267-.8.8-.8.8-.267.8-.8c0-.444.267-.8.6-.8.33 0 .6-.27.6-.6 0-.333.356-.6.8-.6.533 0 .8-.267.8-.8s.267-.8.8-.8.8-.267.8-.8.267-.8.8-.8.8-.267.8-.8.267-.8.8-.8.8-.267.8-.8.267-.8.8-.8c.517 0 .8-.267.8-.753 0-.417.357-.847.8-.963.44-.115.8-.475.8-.8 0-.325.36-.685.8-.8.44-.115.8-.496.8-.847 0-.35.268-.637.595-.637.385 0 .686-.565.851-1.6.193-1.206.441-1.6 1.005-1.6.482 0 .749-.285.749-.8 0-.444.267-.8.6-.8.33 0 .6-.27.6-.6 0-.33.274-.6.61-.6.335 0 .781-.45.99-1 .209-.55.655-1 .99-1 .43 0 .61-.412.61-1.4 0-1.133.152-1.4.8-1.4.533 0 .8-.267.8-.8s.267-.8.8-.8c.667 0 .8-.267.8-1.6 0-1.333.133-1.6.8-1.6.533 0 .8-.267.8-.8s.267-.8.8-.8c.667 0 .8-.267.8-1.6 0-1.333.133-1.6.8-1.6.517 0 .8-.267.8-.753 0-.417.357-.847.8-.963.574-.15.8-.546.8-1.4 0-.854.226-1.25.8-1.4.44-.115.8-.496.8-.847 0-.35.251-.637.557-.637.645 0 1.043-.852 1.043-2.233 0-.593.232-.967.6-.967.433 0 .6-.444.6-1.6 0-1.333.133-1.6.8-1.6s.8-.267.8-1.6c0-1.333.133-1.6.8-1.6.648 0 .8-.267.8-1.4s.152-1.4.8-1.4c.667 0 .8-.267.8-1.6 0-1.333.133-1.6.8-1.6s.8-.267.8-1.6c0-1.333.133-1.6.8-1.6s.8-.267.8-1.6c0-1.333.133-1.6.8-1.6s.8-.267.8-1.6c0-1.333.133-1.6.8-1.6.701 0 .8-.267.8-2.153 0-1.817.125-2.186.8-2.363.613-.16.8-.546.8-1.647 0-.962.184-1.437.557-1.437.739 0 1.043-.886 1.043-3.033 0-1.244.165-1.767.557-1.767.739 0 1.043-.886 1.043-3.033 0-1.304.157-1.767.6-1.767.462 0 .6-.515.6-2.237 0-1.901.12-2.269.8-2.447.709-.185.8-.546.8-3.163 0-2.686.072-2.953.8-2.953.733 0 .8-.267.8-3.2 0-2.933.067-3.2.8-3.2.754 0 .8-.267.8-4.6 0-4.333.046-4.6.8-4.6.756 0 .8-.267.8-4.8 0-2.933.156-4.8.4-4.8.263 0 .4-8.8.4-25.6s-.137-25.6-.4-25.6c-.247 0-.4-2.058-.4-5.373 0-5.022-.052-5.39-.8-5.627-.726-.23-.8-.605-.8-4.027 0-3.506-.057-3.773-.8-3.773-.73 0-.8-.267-.8-3.037 0-2.701-.089-3.061-.8-3.247-.709-.185-.8-.546-.8-3.163 0-2.686-.072-2.953-.8-2.953-.711 0-.8-.267-.8-2.4 0-1.867-.133-2.4-.6-2.4-.394 0-.6-.394-.6-1.15 0-1.926-.472-3.65-.999-3.65-.309 0-.575-.785-.697-2.054-.127-1.329-.428-2.184-.85-2.42-.401-.224-.654-.881-.654-1.699 0-.997-.202-1.386-.8-1.543-.67-.175-.8-.546-.8-2.284 0-1.738-.13-2.109-.8-2.284-.627-.164-.8-.546-.8-1.763 0-1.286-.137-1.553-.8-1.553-.667 0-.8-.267-.8-1.6 0-1.333-.133-1.6-.8-1.6s-.8-.267-.8-1.6c0-1.333-.133-1.6-.8-1.6-.648 0-.8-.267-.8-1.4s-.152-1.4-.8-1.4c-.667 0-.8-.267-.8-1.6 0-1.333-.133-1.6-.8-1.6s-.8-.267-.8-1.6c0-1.333-.133-1.6-.8-1.6s-.8-.267-.8-1.6c0-1.099-.174-1.6-.555-1.6-.32 0-.669-.603-.823-1.421-.146-.782-.508-1.514-.805-1.628-.296-.113-.629-.554-.74-.979-.111-.424-.489-.772-.84-.772-.461 0-.637-.386-.637-1.4 0-1.133-.152-1.4-.8-1.4-.533 0-.8-.267-.8-.8s-.267-.8-.8-.8c-.667 0-.8-.267-.8-1.6 0-1.333-.133-1.6-.8-1.6-.533 0-.8-.267-.8-.8s-.267-.8-.8-.8c-.667 0-.8-.267-.8-1.6 0-1.333-.133-1.6-.8-1.6-.533 0-.8-.267-.8-.8s-.267-.8-.8-.8c-.648 0-.8-.267-.8-1.4 0-1.014-.176-1.4-.637-1.4-.351 0-.732-.36-.847-.8-.116-.443-.546-.8-.963-.8-.486 0-.753-.283-.753-.8 0-.444-.267-.8-.6-.8-.333 0-.6-.356-.6-.8 0-.515-.267-.8-.749-.8-.564 0-.812-.394-1.005-1.6-.154-.965-.473-1.6-.804-1.6-.302 0-.643-.36-.758-.8-.115-.44-.496-.8-.847-.8-.37 0-.637-.335-.637-.8 0-.533-.267-.8-.8-.8s-.8-.267-.8-.8-.267-.8-.8-.8-.8-.267-.8-.8-.267-.8-.8-.8-.8-.267-.8-.8-.267-.8-.8-.8-.8-.267-.8-.8-.267-.8-.8-.8c-.444 0-.8-.267-.8-.6 0-.333-.356-.6-.8-.6-.533 0-.8-.267-.8-.8 0-.444-.267-.8-.6-.8-.333 0-.6-.356-.6-.8 0-.533-.267-.8-.8-.8s-.8-.267-.8-.8-.267-.8-.8-.8-.8-.267-.8-.8-.267-.8-.8-.8-.8-.267-.8-.8-.267-.8-.8-.8-.8-.267-.8-.8c0-.517-.267-.8-.753-.8-.417 0-.847-.357-.963-.8-.115-.44-.475-.8-.8-.8-.325 0-.685-.36-.8-.8-.115-.44-.496-.8-.847-.8-.35 0-.637-.268-.637-.595 0-.385-.565-.686-1.6-.851-1.206-.193-1.6-.441-1.6-1.005 0-.482-.285-.749-.8-.749-.444 0-.8-.267-.8-.6 0-.33-.258-.6-.573-.6-.315 0-.687-.36-.827-.8-.14-.44-.529-.8-.864-.8-.336 0-.705-.36-.82-.8-.157-.601-.546-.8-1.563-.8-1.086 0-1.353-.158-1.353-.8 0-.533-.267-.8-.8-.8s-.8-.267-.8-.8c0-.667-.267-.8-1.6-.8-1.333 0-1.6-.133-1.6-.8 0-.533-.267-.8-.8-.8s-.8-.267-.8-.8c0-.667-.267-.8-1.6-.8-1.333 0-1.6-.133-1.6-.8 0-.517-.267-.8-.753-.8-.417 0-.847-.357-.963-.8-.152-.583-.546-.8-1.447-.8-.865 0-1.237-.192-1.237-.637 0-.351-.36-.732-.8-.847-.44-.115-.8-.435-.8-.712 0-.276-.719-.617-1.6-.758-1.035-.165-1.6-.466-1.6-.851 0-.428-.45-.595-1.6-.595-1.333 0-1.6-.133-1.6-.8s-.267-.8-1.6-.8c-1.333 0-1.6-.133-1.6-.8 0-.642-.267-.8-1.353-.8-1.017 0-1.406-.199-1.563-.8-.16-.613-.546-.8-1.647-.8-1.17 0-1.437-.148-1.437-.8 0-.667-.267-.8-1.6-.8-1.333 0-1.6-.133-1.6-.8s-.267-.8-1.6-.8c-1.333 0-1.6-.133-1.6-.8 0-.663-.267-.8-1.553-.8-1.217 0-1.599-.173-1.763-.8-.174-.665-.546-.8-2.2-.8-1.654 0-2.026-.135-2.2-.8-.16-.613-.546-.8-1.647-.8-.957 0-1.437-.185-1.437-.553 0-.652-1.211-1.034-3.3-1.042-1.064-.003-1.5-.179-1.5-.605s-.436-.602-1.5-.605c-2.089-.008-3.3-.39-3.3-1.042 0-.409-.623-.553-2.4-.553-2.133 0-2.4-.089-2.4-.8 0-.729-.267-.8-3-.8s-3-.071-3-.8c0-.733-.267-.8-3.2-.8-2.933 0-3.2-.067-3.2-.8 0-.754-.267-.8-4.6-.8-4.333 0-4.6-.046-4.6-.8 0-.756-.267-.8-4.8-.8-2.933 0-4.8-.156-4.8-.4 0-.262-8.8-.4-25.6-.4s-25.6.138-25.6.4M237 85.203c1.32.218 6.9.668 12.4.999 5.5.331 11.8.775 14 .986 2.2.211 5.231.39 6.735.398 4.757.025 9.055 2.607 11.676 7.014 1.597 2.685 1.744 9.27.271 12.084-.485.926-.882 1.919-.882 2.206 0 .287-.36 1.194-.8 2.014-.44.821-.8 1.673-.8 1.892 0 .219-.918 2.695-2.04 5.501-1.122 2.807-2.235 5.643-2.473 6.303-.238.66-1.39 3.668-2.56 6.685-1.17 3.017-2.127 5.811-2.127 6.21 0 .687 1.033 2.589 5.738 10.568 2.674 4.535 6.136 10.529 6.62 11.462.482.928 1.482 2.58 3.555 5.875.277.44.777 1.34 1.111 2 .335.66 1.006 1.862 1.492 2.671 2.096 3.486 5.732 9.654 6.284 10.657.528.959 1.415 2.476 4.6 7.861 2.776 4.693 4.98 8.678 5.759 10.411.494 1.1 1.108 2.36 1.365 2.8.774 1.327.873 11.791.133 14.085-.34 1.053-.726 2.635-.859 3.515-.132.88-.575 3.22-.985 5.2-.409 1.98-.954 4.77-1.209 6.2-2.581 14.442-4.632 18.645-11.404 23.366-3.584 2.498-11.219 5.034-15.156 5.034-.711 0-2.632.344-4.269.764-1.636.42-3.965.891-5.175 1.047-5.905.762-7.682 1.513-9.2 3.889-2.85 4.46-3.58 5.42-6.458 8.491-2.668 2.848-6.475 6.09-10.011 8.526-3.587 2.472-10.46 6.883-10.724 6.883-.165 0-.741.347-1.281.772-1.505 1.184-9.755 5.509-14.926 7.825-1.32.591-3.12 1.401-4 1.8-.88.399-1.96.823-2.4.941-.44.118-2.06.692-3.6 1.276-3.386 1.284-7.225 2.473-10.225 3.166-1.223.282-2.843.714-3.6.959-.756.245-3.355.905-5.775 1.466-2.42.562-5.3 1.274-6.4 1.583-1.1.309-3.036.747-4.301.973-1.266.227-2.616.578-3 .78-.385.202-1.689.498-2.899.659-1.21.161-2.523.462-2.918.67-.395.208-2.015.628-3.6.933-2.679.517-4.102.862-9.882 2.396-9.063 2.406-11.123 2.715-16.428 2.464-5.476-.259-8.96-1.802-12.972-5.746-3.014-2.964-4.263-5.708-6.971-15.317-.465-1.65-1.042-3.54-1.281-4.2a34.23 34.23 0 01-.834-2.8c-.218-.88-.739-2.503-1.156-3.608-.417-1.104-.758-2.326-.758-2.715 0-.389-.702-2.905-1.56-5.592-.859-2.687-1.948-6.235-2.421-7.885-.473-1.65-1.121-3.81-1.44-4.8-.319-.99-.856-2.79-1.194-4-2.364-8.457-2.656-9.715-3.949-17a334.41 334.41 0 00-1.206-6.4c-2.22-10.962-2.009-42.611.325-48.95.355-.963.651-2.043.659-2.4.007-.358.361-1.37.786-2.25.425-.88.779-1.772.786-1.982.008-.209.815-2.027 1.794-4.039l1.779-3.659-.556-1.96c-.306-1.078-1.021-3.22-1.589-4.76-.568-1.54-1.58-4.42-2.248-6.4-.669-1.98-1.452-4.05-1.74-4.6-.287-.55-.641-1.657-.785-2.46-.144-.803-.572-2.063-.951-2.8-1.135-2.209-.983-12.35.22-14.624.489-.926.89-1.956.89-2.288 0-1.652 4.715-7.283 9.2-10.987 2.239-1.849 3.913-3.317 9.479-8.308 8.792-7.886 10.371-9.039 14.8-10.816l2.721-1.091 36.987-.013 36.987-.013 1.413-2.061a369.99 369.99 0 012.645-3.8c.677-.956 1.715-2.459 2.305-3.339 3.222-4.798 4.373-5.936 7.663-7.577 3.097-1.545 7.512-1.897 12.8-1.02m-49.067 54.598c-.111.11-2.054.477-4.318.816-2.265.339-4.626.878-5.247 1.199-.62.321-1.577.584-2.125.584-.547 0-1.099.167-1.225.371-.126.204-.902.588-1.724.853-1.431.463-6.441 3.179-7.694 4.172-1.738 1.378-7.141 6.949-7.632 7.87-3.739 7.011-4.526 9.773-4.543 15.934-.032 11.74 6.283 22.33 15.073 25.277.716.24 1.586.681 1.933.98.348.298.838.543 1.09.543.252 0 1.227.336 2.168.747 2.238.977 5.526 2.028 8.511 2.719 5.932 1.375 9.822 2.217 12.608 2.73 1.655.305 3.455.723 4 .929.546.207 1.982.509 3.192.672 1.21.163 2.65.522 3.2.796.55.275 1.72.62 2.6.766 5.634.937 17 8.369 17 11.116 0 .295.386 1.254.858 2.131 1.01 1.875 1.513 9.655.803 12.394-1.569 6.045-4.149 9.831-8.661 12.708-1.1.701-2.238 1.504-2.529 1.784-.29.279-.721.508-.956.508s-1.167.336-2.071.746c-5.482 2.489-20.7 3.523-26.844 1.824-1.32-.365-3.03-.791-3.8-.948-.77-.156-1.76-.477-2.2-.715-.44-.237-2.052-1.033-3.583-1.769-5.928-2.85-10.477-8.693-12.41-15.938-.381-1.43-.876-2.825-1.099-3.1-.555-.684-11.73-.712-12.151-.03-.522.843-.113 5.212.674 7.208.423 1.074.769 2.204.769 2.513 0 3.806 8.039 14.258 14.154 18.403 9.417 6.383 27.32 9.307 40.446 6.606 2.138-.44 4.312-.8 4.83-.8.519 0 1.534-.249 2.256-.554.723-.305 2.394-.961 3.714-1.458 6.311-2.378 10.681-5.205 14.61-9.455 2.398-2.594 5.99-7.692 5.99-8.502 0-.28.261-1.077.58-1.771 2.799-6.08 2.801-19.551.005-25.401-.384-.802-1.168-2.431-1.742-3.619-1.048-2.169-6.163-7.735-7.806-8.495-.461-.212-1.557-.823-2.437-1.358-.88-.534-2.05-1.177-2.6-1.428a70.043 70.043 0 01-2.454-1.208c-.8-.413-1.795-.751-2.211-.751-.417 0-1.112-.248-1.546-.552-.867-.606-4.553-1.66-8.589-2.456-1.43-.282-3.155-.689-3.834-.905-.678-.216-2.388-.526-3.8-.689-1.411-.164-3.016-.469-3.566-.679-.55-.211-2.44-.634-4.2-.941-5.133-.896-13.01-3.11-14.389-4.043-.434-.294-1.158-.535-1.609-.535-1.801 0-7.033-4.096-8.94-7-2.888-4.395-3.107-13.865-.402-17.354.407-.525.74-1.159.74-1.41 0-2.753 10.655-9.171 17-10.24 9.499-1.602 19.536-.041 27.6 4.29 3.875 2.082 9.02 9.36 9.978 14.114.61 3.03.081 2.8 6.435 2.8 5.292 0 5.793-.063 6.175-.777.528-.987-.063-5.434-.95-7.15-.351-.678-.638-1.523-.638-1.878 0-.893-1.89-4.806-2.61-5.403-.324-.269-.59-.708-.59-.974 0-2.265-10.015-10.389-16-12.979-.55-.238-1.27-.601-1.6-.805-3.37-2.091-24.153-4.547-25.667-3.033" fill="#714dbc"/><path d="M224.2 86.223c-3.29 1.641-4.441 2.779-7.663 7.577-.59.88-1.628 2.383-2.305 3.339a369.99 369.99 0 00-2.645 3.8L210.174 103l-36.987.013-36.987.013-2.721 1.091c-4.429 1.777-6.008 2.93-14.8 10.816-5.566 4.991-7.24 6.459-9.479 8.308-4.485 3.704-9.2 9.335-9.2 10.987 0 .332-.401 1.362-.89 2.288-1.203 2.274-1.355 12.415-.22 14.624.379.737.807 1.997.951 2.8.144.803.498 1.91.785 2.46.288.55 1.071 2.62 1.74 4.6.668 1.98 1.68 4.86 2.248 6.4.568 1.54 1.283 3.682 1.589 4.76l.556 1.96-1.779 3.659c-.979 2.012-1.786 3.83-1.794 4.039-.007.21-.361 1.102-.786 1.982-.425.88-.779 1.892-.786 2.25-.008.357-.304 1.437-.659 2.4-2.334 6.339-2.545 37.988-.325 48.95.312 1.54.854 4.42 1.206 6.4 1.293 7.285 1.585 8.543 3.949 17 .338 1.21.875 3.01 1.194 4 .319.99.967 3.15 1.44 4.8s1.562 5.198 2.421 7.885c.858 2.687 1.56 5.203 1.56 5.592 0 .389.341 1.611.758 2.715.417 1.105.938 2.728 1.156 3.608.219.88.594 2.14.834 2.8.239.66.816 2.55 1.281 4.2 2.708 9.609 3.957 12.353 6.971 15.317 4.012 3.944 7.496 5.487 12.972 5.746 5.305.251 7.365-.058 16.428-2.464 5.78-1.534 7.203-1.879 9.882-2.396 1.585-.305 3.205-.725 3.6-.933.395-.208 1.708-.509 2.918-.67 1.21-.161 2.514-.457 2.899-.659.384-.202 1.734-.553 3-.78a55.219 55.219 0 004.301-.973c1.1-.309 3.98-1.021 6.4-1.583 2.42-.561 5.019-1.221 5.775-1.466.757-.245 2.377-.677 3.6-.959 3-.693 6.839-1.882 10.225-3.166 1.54-.584 3.16-1.158 3.6-1.276.44-.118 1.52-.542 2.4-.941.88-.399 2.68-1.209 4-1.8 5.171-2.316 13.421-6.641 14.926-7.825.54-.425 1.116-.772 1.281-.772.264 0 7.137-4.411 10.724-6.883 3.536-2.436 7.343-5.678 10.011-8.526 2.878-3.071 3.608-4.031 6.458-8.491 1.518-2.376 3.295-3.127 9.2-3.889 1.21-.156 3.539-.627 5.175-1.047 1.637-.42 3.558-.764 4.269-.764 3.937 0 11.572-2.536 15.156-5.034 6.772-4.721 8.823-8.924 11.404-23.366.255-1.43.8-4.22 1.209-6.2.41-1.98.853-4.32.985-5.2.133-.88.519-2.462.859-3.515.74-2.294.641-12.758-.133-14.085-.257-.44-.871-1.7-1.365-2.8-.779-1.733-2.983-5.718-5.759-10.411-3.185-5.385-4.072-6.902-4.6-7.861-.552-1.003-4.188-7.171-6.284-10.657a52.615 52.615 0 01-1.492-2.671c-.334-.66-.834-1.56-1.111-2-2.073-3.295-3.073-4.947-3.555-5.875-.484-.933-3.946-6.927-6.62-11.462-4.705-7.979-5.738-9.881-5.738-10.568 0-.399.957-3.193 2.127-6.21s2.322-6.025 2.56-6.685c.238-.66 1.351-3.496 2.473-6.303 1.122-2.806 2.04-5.282 2.04-5.501 0-.219.36-1.071.8-1.892.44-.82.8-1.727.8-2.014 0-.287.397-1.28.882-2.206 1.473-2.814 1.326-9.399-.271-12.084-2.621-4.407-6.919-6.989-11.676-7.014-1.504-.008-4.535-.187-6.735-.398-2.2-.211-8.5-.655-14-.986-5.5-.331-11.08-.781-12.4-.999-5.288-.877-9.703-.525-12.8 1.02m-20.253 54.025c3.924.737 8.762 2.032 9.653 2.586.33.204 1.05.567 1.6.805 5.985 2.59 16 10.714 16 12.979 0 .266.266.705.59.974.72.597 2.61 4.51 2.61 5.403 0 .355.287 1.2.638 1.878.887 1.716 1.478 6.163.95 7.15-.382.714-.883.777-6.175.777-6.354 0-5.825.23-6.435-2.8-.958-4.754-6.103-12.032-9.978-14.114-11.281-6.06-25.311-6.588-36.169-1.361-2.53 1.218-8.431 6.335-8.431 7.311 0 .251-.333.885-.74 1.41-2.705 3.489-2.486 12.959.402 17.354 1.907 2.904 7.139 7 8.94 7 .451 0 1.175.241 1.609.535 1.379.933 9.256 3.147 14.389 4.043 1.76.307 3.65.73 4.2.941.55.21 2.155.515 3.566.679 1.412.163 3.122.473 3.8.689.679.216 2.404.623 3.834.905 4.036.796 7.722 1.85 8.589 2.456.434.304 1.129.552 1.546.552.416 0 1.411.338 2.211.751.799.413 1.904.957 2.454 1.208.55.251 1.72.894 2.6 1.428.88.535 1.976 1.146 2.437 1.358 1.643.76 6.758 6.326 7.806 8.495.574 1.188 1.358 2.817 1.742 3.619 2.796 5.85 2.794 19.321-.005 25.401-.319.694-.58 1.491-.58 1.771 0 .81-3.592 5.908-5.99 8.502-3.929 4.25-8.299 7.077-14.61 9.455-1.32.497-2.991 1.153-3.714 1.458-.722.305-1.737.554-2.256.554-.518 0-2.692.36-4.83.8-13.126 2.701-31.029-.223-40.446-6.606-6.115-4.145-14.154-14.597-14.154-18.403 0-.309-.346-1.439-.769-2.513-.787-1.996-1.196-6.365-.674-7.208.421-.682 11.596-.654 12.151.03.223.275.718 1.67 1.099 3.1 1.933 7.245 6.482 13.088 12.41 15.938 1.531.736 3.143 1.532 3.583 1.769.44.238 1.43.559 2.2.715.77.157 2.48.583 3.8.948 6.144 1.699 21.362.665 26.844-1.824.904-.41 1.836-.746 2.071-.746.235 0 .666-.229.956-.508.291-.28 1.429-1.083 2.529-1.784 4.512-2.877 7.092-6.663 8.661-12.708.71-2.739.207-10.519-.803-12.394-.472-.877-.858-1.836-.858-2.131 0-2.747-11.366-10.179-17-11.116-.88-.146-2.05-.491-2.6-.766-.55-.274-1.99-.633-3.2-.796-1.21-.163-2.646-.465-3.192-.672-.545-.206-2.345-.624-4-.929-2.786-.513-6.676-1.355-12.608-2.73-2.985-.691-6.273-1.742-8.511-2.719-.941-.411-1.916-.747-2.168-.747-.252 0-.742-.245-1.09-.543-.347-.299-1.217-.74-1.933-.98-8.79-2.947-15.105-13.537-15.073-25.277.017-6.161.804-8.923 4.543-15.934.491-.921 5.894-6.492 7.632-7.87 1.253-.993 6.263-3.709 7.694-4.172.822-.265 1.598-.649 1.724-.853.126-.204.678-.371 1.225-.371.548 0 1.505-.263 2.125-.584.621-.321 2.982-.86 5.247-1.199 2.264-.339 4.207-.706 4.318-.816.505-.505 12.766-.163 16.014.447" fill="#fbfafb"/></g></svg>