<svg xmlns="http://www.w3.org/2000/svg" width="12" height="12"><rect width="100%" height="100%" fill="none"/><g class="currentLayer"><g class="selected" fill="#182a5b"><path d="M5.32 3.916a1.2 1.2 0 00.066.121c.022.033.055.066.077.1a.994.994 0 00.11.1.37.37 0 00.132.066.542.542 0 00.143.044.674.674 0 00.143.011.626.626 0 00.143-.011.393.393 0 00.121-.044h.01a.818.818 0 00.132-.077.708.708 0 00.1-.088l.011-.011a.6.6 0 00.077-.1.344.344 0 00.055-.11c0-.011 0-.011.011-.022a.713.713 0 00.044-.143.934.934 0 000-.285 1.025 1.025 0 00-.044-.143.623.623 0 00-.132-.2l-.022-.022a.955.955 0 00-.11-.088c-.044-.022-.077-.044-.121-.066a.618.618 0 00-.132-.044.674.674 0 00-.143-.011.625.625 0 00-.143.011.618.618 0 00-.132.044h-.011a1.2 1.2 0 00-.121.066.96.96 0 00-.11.088.711.711 0 00-.088.1 1.2 1.2 0 00-.066.121.617.617 0 00-.044.132.675.675 0 00-.011.143.626.626 0 00.011.143 1 1 0 00.044.175zm1.524 4.015h-.252V5.244a.283.283 0 00-.285-.285H5.155a.283.283 0 00-.285.285v.592a.283.283 0 00.285.285h.23v1.821h-.23a.283.283 0 00-.285.285v.592a.283.283 0 00.285.285h1.689a.283.283 0 00.285-.285v-.592a.293.293 0 00-.285-.296z" class="cls-1"/><path d="M6 0a6 6 0 106 6 6 6 0 00-6-6zm0 11.21A5.21 5.21 0 1111.21 6 5.215 5.215 0 016 11.21z" class="cls-1"/></g></g></svg>