<svg width="114" height="114" viewBox="0 0 114 114" fill="none" xmlns="http://www.w3.org/2000/svg"><circle cx="57" cy="57" r="57" fill="url(#paint0_linear)"/><g filter="url(#filter0_i)"><circle cx="57" cy="57" r="57" fill="url(#paint1_linear)"/></g><circle cx="57" cy="57" r="56.406" stroke="url(#paint2_linear)" stroke-opacity=".12" stroke-width="1.188"/><g filter="url(#filter1_di)"><path clip-rule="evenodd" d="M78.19 29.534a1 1 0 00-.867-1.357l-11.337-.752a1 1 0 00-.888.428l-3.004 4.327a1 1 0 01-.827.43l-19.957-.118a4 4 0 00-2.662.994l-5.538 4.86a4 4 0 00-1.129 4.349l2.638 7.4a.12.12 0 01-.018.113v0a12.409 12.409 0 00-2.474 6.798l-.045.838a45.98 45.98 0 001.822 15.493l3.485 11.791a2.993 2.993 0 003.576 2.066l13.631-3.277a35.992 35.992 0 0011.206-4.83l2.149-1.398a12.408 12.408 0 004.65-5.542v0a.12.12 0 01.089-.072l7.727-1.416a4 4 0 003.202-3.152l1.44-7.226a4 4 0 00-.47-2.802L75.214 41.46a4 4 0 01-.281-3.456l3.257-8.47z" stroke="#fff" stroke-width="5.5"/></g><defs><linearGradient id="paint0_linear" x1="57" y1="0" x2="57" y2="114" gradientUnits="userSpaceOnUse"><stop stop-color="#130C3F"/><stop offset="1" stop-color="#15197B"/></linearGradient><linearGradient id="paint1_linear" x1="0" y1="57" x2="114" y2="57" gradientUnits="userSpaceOnUse"><stop stop-color="#AE73FA"/><stop offset="1" stop-color="#AE73FA" stop-opacity="0"/></linearGradient><linearGradient id="paint2_linear" x1="114" y1="57" x2="0" y2="57" gradientUnits="userSpaceOnUse"><stop stop-color="#AE73FA"/><stop offset="1" stop-color="#AE73FA" stop-opacity="0"/></linearGradient><filter id="filter0_i" x="-9.5" y="0" width="123.5" height="114" filterUnits="userSpaceOnUse" color-interpolation-filters="sRGB"><feFlood flood-opacity="0" result="BackgroundImageFix"/><feBlend in="SourceGraphic" in2="BackgroundImageFix" result="shape"/><feColorMatrix in="SourceAlpha" values="0 0 0 0 0 0 0 0 0 0 0 0 0 0 0 0 0 0 127 0" result="hardAlpha"/><feOffset dx="-14.25"/><feGaussianBlur stdDeviation="4.75"/><feComposite in2="hardAlpha" operator="arithmetic" k2="-1" k3="1"/><feColorMatrix values="0 0 0 0 0.682353 0 0 0 0 0.45098 0 0 0 0 0.980392 0 0 0 0.56 0"/><feBlend in2="shape" result="effect1_innerShadow"/></filter><filter id="filter1_di" x="28.038" y="24.192" width="60.81" height="67.277" filterUnits="userSpaceOnUse" color-interpolation-filters="sRGB"><feFlood flood-opacity="0" result="BackgroundImageFix"/><feColorMatrix in="SourceAlpha" values="0 0 0 0 0 0 0 0 0 0 0 0 0 0 0 0 0 0 127 0" result="hardAlpha"/><feOffset dy=".48"/><feGaussianBlur stdDeviation=".48"/><feColorMatrix values="0 0 0 0 0 0 0 0 0 0 0 0 0 0 0 0 0 0 0.12 0"/><feBlend in2="BackgroundImageFix" result="effect1_dropShadow"/><feBlend in="SourceGraphic" in2="effect1_dropShadow" result="shape"/><feColorMatrix in="SourceAlpha" values="0 0 0 0 0 0 0 0 0 0 0 0 0 0 0 0 0 0 127 0" result="hardAlpha"/><feOffset dy=".48"/><feGaussianBlur stdDeviation=".48"/><feComposite in2="hardAlpha" operator="arithmetic" k2="-1" k3="1"/><feColorMatrix values="0 0 0 0 0 0 0 0 0 0 0 0 0 0 0 0 0 0 0.12 0"/><feBlend in2="shape" result="effect2_innerShadow"/></filter></defs></svg>